<?xml version="1.0" encoding="utf-8"?>
<!-- Svg Vector Icons : http://www.onlinewebfonts.com/icon -->
<!DOCTYPE svg PUBLIC "-//W3C//DTD SVG 1.1//EN" "http://www.w3.org/Graphics/SVG/1.1/DTD/svg11.dtd">
<svg version="1.1" xmlns="http://www.w3.org/2000/svg" xmlns:xlink="http://www.w3.org/1999/xlink" x="0px" y="0px" viewBox="0 0 1000 1000" enable-background="new 0 0 1000 1000" xml:space="preserve">
<metadata> Svg Vector Icons : http://www.onlinewebfonts.com/icon </metadata>
<g><path d="M964.5,824.9L784.2,657.4c38.1-62.9,60.1-136.8,60.1-215.7c0-230.4-186.8-417.1-417.1-417.1C196.8,24.5,10,211.3,10,441.6C10,672,196.8,858.8,427.1,858.8c87.5,0,168.6-27,235.7-73l175.8,163.5C873,984,929,984.3,963.7,950C998.5,915.7,998.8,859.6,964.5,824.9z M140.2,441.6c0-158.5,128.5-287,287-287s287,128.5,287,287c0,158.5-128.5,287-287,287S140.2,600.1,140.2,441.6z"/></g>
</svg>